<?xml version="1.0" standalone="no"?>
<!DOCTYPE svg PUBLIC "-//W3C//DTD SVG 20010904//EN"
 "http://www.w3.org/TR/2001/REC-SVG-20010904/DTD/svg10.dtd">
<svg version="1.0" xmlns="http://www.w3.org/2000/svg"
 width="1080.000000pt" height="1080.000000pt" viewBox="0 0 1080.000000 1080.000000"
 preserveAspectRatio="xMidYMid meet">

<g transform="translate(0.000000,1080.000000) scale(0.100000,-0.100000)"
fill="#000000" stroke="none">
<path d="M2376 7974 c-19 -19 -21 -73 -3 -98 8 -10 46 -24 101 -36 103 -23
142 -43 173 -90 l23 -33 0 -1879 c0 -2032 3 -1904 -52 -1955 -22 -21 -156 -63
-200 -63 -45 0 -74 -72 -48 -121 10 -18 28 -19 635 -19 607 0 625 1 635 19 14
27 13 74 -3 95 -8 10 -46 24 -101 36 -99 22 -139 41 -170 83 -21 28 -21 32
-24 895 -3 955 -6 907 58 945 26 15 88 17 692 17 639 0 664 -1 692 -19 58 -38
55 5 56 -931 0 -846 -1 -866 -20 -898 -28 -46 -71 -68 -177 -92 -99 -23 -113
-34 -113 -88 0 -62 -2 -62 411 -62 l374 0 57 -77 c274 -378 666 -643 1088
-737 349 -77 689 -52 1001 73 100 40 195 85 247 116 l42 26 0 -135 0 -136 334
0 334 0 6 263 c4 144 8 535 9 868 l2 606 -200 6 c-110 4 -419 7 -687 7 l-488
0 0 -100 0 -100 350 0 350 0 0 -298 c0 -164 -3 -421 -7 -570 l-6 -272 -111
-54 c-183 -89 -336 -126 -526 -126 -694 0 -1284 637 -1427 1540 -26 165 -26
631 0 775 88 483 273 863 558 1145 262 260 555 390 879 390 69 0 153 -5 187
-10 396 -64 746 -334 996 -767 l67 -117 0 75 c0 41 3 97 6 124 6 50 6 50 -69
150 -314 419 -731 677 -1215 750 -130 20 -375 20 -503 -1 -365 -58 -711 -233
-990 -503 l-89 -86 0 600 c0 565 1 602 19 635 26 50 68 74 163 94 112 24 128
35 128 89 0 24 -5 48 -12 55 -9 9 -164 12 -634 12 l-622 0 -11 -28 c-13 -32
-6 -75 14 -92 7 -6 50 -20 95 -31 132 -31 173 -62 190 -143 8 -35 10 -287 8
-826 -3 -742 -4 -776 -22 -803 -40 -59 -15 -57 -741 -57 l-665 0 -38 34 -37
34 -3 819 -2 820 22 33 c32 47 68 66 173 89 56 12 94 26 102 37 16 21 17 68 3
95 -10 18 -28 19 -630 19 -549 0 -620 -2 -634 -16z"/>
</g>
</svg>
