<?xml version="1.0" encoding="utf-8"?>
<!-- Generator: Adobe Illustrator 27.5.0, SVG Export Plug-In . SVG Version: 6.00 Build 0)  -->
<svg version="1.1" id="Capa_1" xmlns="http://www.w3.org/2000/svg" xmlns:xlink="http://www.w3.org/1999/xlink" x="0px" y="0px"
	 viewBox="0 0 2122 2122" style="enable-background:new 0 0 2122 2122;" xml:space="preserve">
<g>
	<path style="fill:#F2AA77;" d="M1152.84,880.066l113.293-53.543l-40.77-60.199l114.285,25.438l18.84-8.906l-25.332-72.035
		l81.875,45.305l48.676-23.016l-14.219-79.828l71.27,52.867l140.914-66.617l-31.59-55.82l-5.262-9.301l105.57,32.582l0.059,0.02
		l78.324-37.02c-6.324-2.723-12.582-5.32-18.809-7.867c-1.441-0.586-2.883-1.18-4.324-1.754c-6.109-2.469-12.191-4.875-18.215-7.18
		c-0.715-0.273-1.43-0.531-2.152-0.805c-5.52-2.09-10.992-4.106-16.43-6.059c-1.289-0.465-2.574-0.93-3.867-1.391
		c-5.875-2.078-11.711-4.09-17.5-6.016c-1.047-0.344-2.086-0.676-3.129-1.023c-5.172-1.695-10.309-3.336-15.406-4.906
		c-1.051-0.32-2.102-0.652-3.141-0.973c-5.688-1.73-11.324-3.379-16.918-4.953c-1.184-0.328-2.355-0.652-3.531-0.977
		c-5.137-1.418-10.23-2.781-15.277-4.07c-0.684-0.176-1.367-0.363-2.031-0.531c-5.523-1.387-10.988-2.699-16.41-3.945
		c-1.223-0.277-2.441-0.547-3.664-0.816c-5.414-1.219-10.809-2.383-16.137-3.449c-0.047-0.008-0.102-0.019-0.152-0.031
		c-5.387-1.07-10.727-2.055-16.027-2.98c-1.176-0.207-2.348-0.41-3.508-0.613c-5.23-0.883-10.406-1.715-15.543-2.461
		c-0.508-0.074-1.012-0.137-1.523-0.211c-4.742-0.684-9.438-1.285-14.105-1.84c-1.102-0.137-2.191-0.273-3.285-0.395
		c-4.965-0.566-9.898-1.078-14.77-1.516c-0.855-0.074-1.699-0.137-2.547-0.211c-4.344-0.367-8.66-0.688-12.938-0.949
		c-0.93-0.059-1.871-0.129-2.797-0.18c-4.758-0.273-9.477-0.48-14.152-0.629c-1-0.035-1.988-0.055-2.984-0.078
		c-4.234-0.113-8.434-0.18-12.594-0.188c-0.477-0.004-0.969-0.027-1.441-0.027c-0.137,0-0.273,0.016-0.41,0.016
		c-7.191,0.008-14.285,0.148-21.27,0.441c-0.168,0.012-0.332,0.02-0.5,0.031c-6.836,0.297-13.566,0.734-20.219,1.293
		c-0.555,0.051-1.102,0.105-1.645,0.152c-6.273,0.563-12.465,1.234-18.57,2.012c-0.707,0.09-1.391,0.18-2.09,0.273
		c-6,0.805-11.918,1.707-17.754,2.719c-0.652,0.113-1.305,0.223-1.961,0.34c-5.941,1.063-11.797,2.223-17.57,3.496
		c-0.461,0.102-0.934,0.199-1.398,0.301c-6.129,1.367-12.172,2.851-18.109,4.453c-0.059,0.016-0.113,0.023-0.172,0.039
		c-5.988,1.621-11.875,3.355-17.676,5.188c-0.402,0.129-0.805,0.266-1.203,0.394c-5.422,1.734-10.762,3.574-16.023,5.488
		c-0.586,0.215-1.164,0.434-1.738,0.641c-5.105,1.891-10.137,3.863-15.086,5.922c-0.59,0.246-1.184,0.496-1.777,0.738
		c-4.965,2.09-9.863,4.266-14.676,6.512c-0.496,0.226-0.984,0.453-1.469,0.68c-5.023,2.375-9.969,4.824-14.832,7.352
		c-0.227,0.117-0.445,0.227-0.664,0.344c-5.035,2.633-9.988,5.359-14.848,8.156c-0.277,0.156-0.539,0.309-0.816,0.473
		c-4.617,2.672-9.168,5.422-13.645,8.242c-0.477,0.297-0.945,0.605-1.422,0.902c-4.273,2.711-8.488,5.496-12.621,8.324
		c-0.527,0.367-1.051,0.727-1.566,1.086c-4.109,2.836-8.148,5.742-12.113,8.684c-0.469,0.348-0.945,0.695-1.402,1.047
		c-4.086,3.051-8.09,6.164-12.027,9.32c-0.297,0.238-0.594,0.469-0.887,0.707c-4.164,3.367-8.262,6.793-12.27,10.262
		c-0.148,0.125-0.285,0.242-0.422,0.363c-3.906,3.391-7.73,6.832-11.492,10.316c-0.359,0.336-0.723,0.676-1.086,1.023
		c-3.531,3.289-7.012,6.625-10.414,9.996c-0.441,0.438-0.887,0.879-1.328,1.32c-3.336,3.328-6.605,6.684-9.82,10.07
		c-0.422,0.445-0.836,0.879-1.254,1.32c-3.266,3.469-6.461,6.961-9.602,10.481c-0.305,0.348-0.621,0.688-0.922,1.031
		c-3.313,3.738-6.559,7.504-9.734,11.289c-0.102,0.117-0.207,0.234-0.301,0.356c-3.23,3.859-6.383,7.742-9.473,11.652
		c-0.27,0.324-0.516,0.656-0.781,0.988c-2.863,3.633-5.676,7.281-8.418,10.953c-0.352,0.477-0.703,0.949-1.063,1.422
		c-2.645,3.555-5.242,7.121-7.785,10.703c-0.352,0.5-0.711,1.008-1.066,1.504c-2.543,3.613-5.027,7.219-7.461,10.832
		c-0.293,0.438-0.594,0.867-0.887,1.305c-2.523,3.766-4.984,7.535-7.391,11.305c-0.168,0.258-0.336,0.516-0.504,0.781
		c-2.512,3.941-4.953,7.871-7.34,11.805c-0.191,0.309-0.375,0.621-0.57,0.934c-2.23,3.699-4.414,7.391-6.543,11.066
		c-0.277,0.492-0.555,0.973-0.836,1.457c-2.023,3.52-4,7.027-5.93,10.524c-0.305,0.555-0.605,1.101-0.906,1.648
		c-1.895,3.461-3.746,6.906-5.547,10.332c-0.277,0.523-0.555,1.047-0.828,1.566c-1.832,3.508-3.613,6.984-5.348,10.438
		c-0.133,0.262-0.273,0.531-0.41,0.797c0,0,0,0.012-0.008,0.019c47.594-185.094,47.355-492.391-401.676-636.418l34.738,79.359
		l0.059,0.023l100.996,44.777l-10.066,3.559l-60.492,21.336l62.5,142.797l88.457,6.949l-63.152,50.852l21.586,49.324l91.496,19.621
		l-66.422,37.676l8.363,19.09l102.879,55.887l-70.281,18.617l68.344,156.117c-0.148-0.176-0.309-0.371-0.457-0.547
		c-1.887-2.324-3.828-4.672-5.813-7.043c-0.324-0.391-0.645-0.777-0.977-1.168c-2-2.387-4.051-4.801-6.148-7.238
		c-0.344-0.398-0.68-0.789-1.027-1.195c-2.121-2.453-4.293-4.926-6.508-7.418c-0.34-0.387-0.676-0.77-1.02-1.156
		c-2.254-2.523-4.555-5.066-6.902-7.625c-0.336-0.367-0.66-0.726-0.996-1.09c-2.406-2.613-4.863-5.238-7.363-7.879
		c-0.301-0.316-0.59-0.629-0.887-0.941c-2.57-2.699-5.199-5.41-7.871-8.129c-0.301-0.309-0.598-0.613-0.902-0.918
		c-2.734-2.777-5.519-5.559-8.367-8.352c-0.316-0.305-0.641-0.617-0.965-0.934c-2.762-2.699-5.574-5.402-8.434-8.105
		c-0.394-0.367-0.789-0.738-1.184-1.109c-2.785-2.613-5.605-5.227-8.48-7.832c-0.484-0.438-0.973-0.879-1.457-1.316
		c-2.813-2.539-5.668-5.07-8.563-7.602c-0.559-0.481-1.125-0.969-1.688-1.457c-2.859-2.469-5.762-4.938-8.699-7.395
		c-0.621-0.516-1.242-1.031-1.863-1.543c-2.93-2.426-5.891-4.84-8.902-7.234c-0.66-0.527-1.32-1.055-1.984-1.582
		c-3.004-2.367-6.043-4.731-9.117-7.066c-0.703-0.539-1.414-1.07-2.121-1.606c-3.09-2.324-6.219-4.637-9.383-6.926
		c-0.719-0.52-1.434-1.035-2.152-1.547c-3.199-2.289-6.434-4.551-9.711-6.801c-0.723-0.492-1.449-0.988-2.176-1.48
		c-3.32-2.258-6.684-4.477-10.086-6.676c-0.703-0.457-1.402-0.914-2.113-1.367c-3.473-2.223-6.992-4.414-10.547-6.578
		c-0.66-0.406-1.313-0.805-1.973-1.203c-3.656-2.203-7.359-4.359-11.094-6.484c-0.59-0.344-1.172-0.68-1.762-1.008
		c-3.867-2.184-7.781-4.316-11.734-6.414c-0.484-0.262-0.969-0.516-1.457-0.777c-4.137-2.176-8.324-4.297-12.555-6.371
		c-0.469-0.227-0.938-0.457-1.406-0.68c-4.25-2.066-8.551-4.09-12.895-6.043c-0.469-0.207-0.945-0.41-1.414-0.617
		c-4.223-1.883-8.484-3.715-12.793-5.48c-0.574-0.234-1.156-0.465-1.727-0.691c-4.238-1.723-8.512-3.395-12.832-4.992
		c-0.644-0.242-1.289-0.465-1.938-0.703c-4.277-1.563-8.598-3.078-12.957-4.523c-0.699-0.231-1.402-0.457-2.106-0.684
		c-4.34-1.41-8.715-2.77-13.137-4.051c-0.734-0.215-1.469-0.426-2.203-0.633c-4.422-1.262-8.879-2.461-13.379-3.594
		c-0.754-0.184-1.504-0.375-2.258-0.555c-4.523-1.109-9.09-2.148-13.695-3.117c-0.742-0.16-1.481-0.313-2.223-0.469
		c-4.656-0.949-9.352-1.82-14.086-2.625c-0.715-0.121-1.426-0.242-2.145-0.367c-4.801-0.777-9.644-1.484-14.523-2.109
		c-0.668-0.09-1.332-0.176-2-0.258c-4.977-0.613-9.996-1.133-15.059-1.574c-0.59-0.051-1.176-0.105-1.77-0.156
		c-5.188-0.426-10.422-0.754-15.703-0.984c-0.473-0.023-0.938-0.051-1.41-0.066c-5.445-0.223-10.934-0.336-16.465-0.348
		c-0.223,0-0.441-0.012-0.668-0.012c-0.133,0-0.274,0.008-0.414,0.008c-3.27,0-6.551,0.043-9.859,0.121
		c-0.801,0.02-1.609,0.055-2.414,0.086c-2.535,0.07-5.086,0.164-7.641,0.289c-1.094,0.055-2.191,0.113-3.293,0.172
		c-2.367,0.133-4.742,0.289-7.121,0.457c-1.07,0.078-2.144,0.152-3.219,0.234c-2.813,0.231-5.641,0.484-8.48,0.766
		c-0.582,0.055-1.16,0.102-1.742,0.164c-3.457,0.363-6.934,0.762-10.418,1.203c-0.77,0.098-1.543,0.211-2.313,0.313
		c-2.719,0.356-5.449,0.746-8.188,1.16c-1.074,0.16-2.156,0.332-3.234,0.508c-2.551,0.398-5.109,0.828-7.68,1.281
		c-1.031,0.184-2.063,0.359-3.098,0.547c-3.102,0.574-6.207,1.168-9.336,1.805c-0.445,0.094-0.887,0.172-1.332,0.27
		c-3.625,0.75-7.27,1.551-10.922,2.398c-0.77,0.172-1.551,0.375-2.32,0.555c-2.855,0.676-5.727,1.383-8.602,2.117
		c-1.09,0.277-2.184,0.566-3.273,0.855c-2.684,0.703-5.379,1.441-8.086,2.199c-1.035,0.293-2.07,0.578-3.113,0.879
		c-3.367,0.973-6.746,1.977-10.141,3.031c-0.305,0.098-0.609,0.18-0.914,0.277c-3.773,1.18-7.57,2.422-11.379,3.703
		c-0.828,0.277-1.656,0.574-2.48,0.855c-2.938,1.008-5.883,2.047-8.84,3.117c-1.137,0.41-2.277,0.828-3.418,1.254
		c-2.777,1.023-5.574,2.086-8.367,3.172c-1.074,0.414-2.145,0.824-3.227,1.25c-3.547,1.398-7.109,2.848-10.684,4.344
		c-0.258,0.101-0.512,0.203-0.766,0.305c-3.902,1.644-7.816,3.34-11.746,5.094c-0.914,0.398-1.824,0.824-2.734,1.23
		c-2.98,1.34-5.973,2.719-8.973,4.129c-1.207,0.57-2.414,1.141-3.621,1.719c-2.855,1.371-5.719,2.762-8.586,4.184
		c-1.129,0.559-2.254,1.113-3.387,1.676c-3.723,1.871-7.465,3.797-11.219,5.773c-0.199,0.109-0.398,0.207-0.605,0.32
		c-4.008,2.109-8.027,4.297-12.066,6.535c-1.031,0.57-2.07,1.164-3.105,1.746c-2.992,1.676-5.988,3.379-8.996,5.121
		c-1.289,0.746-2.578,1.504-3.871,2.258c-2.906,1.711-5.82,3.453-8.734,5.219c-1.199,0.723-2.387,1.434-3.586,2.168
		c-3.875,2.375-7.754,4.789-11.648,7.281c-0.184,0.109-0.367,0.227-0.551,0.344c-4.102,2.621-8.223,5.316-12.355,8.059
		c-1.16,0.77-2.328,1.57-3.496,2.355c-2.977,1.996-5.961,4.027-8.957,6.09c-1.398,0.965-2.801,1.949-4.207,2.926
		c-2.918,2.039-5.844,4.117-8.781,6.219c-1.289,0.926-2.574,1.836-3.863,2.777c-4.012,2.906-8.035,5.859-12.07,8.887
		c-0.16,0.117-0.316,0.234-0.477,0.352c-4.199,3.152-8.41,6.387-12.641,9.664c-1.266,0.988-2.547,2.004-3.816,3
		c-3,2.352-6.004,4.734-9.016,7.152c-1.473,1.18-2.945,2.371-4.418,3.563c-2.996,2.438-6.004,4.91-9.016,7.41
		c-1.324,1.098-2.641,2.183-3.965,3.293c-4.285,3.598-8.59,7.242-12.906,10.973l85.836,11.648l0.051-0.027l90.82-62.93
		l-2.207,10.453l-13.277,62.758l154.461,20.969l51.98-71.902l10.543,80.395l53.352,7.246l64.379-67.898l-2.406,76.32l20.652,2.797
		l101.277-58.742l-20.699,69.699l162.211,22.023c-89.773,5.707-240.945,31.727-354.141,135.219
		c-0.602,0.547-1.203,1.082-1.805,1.633c-84.934,78.551-148.004,201.211-146.727,392.414c0.234,34.836,2.602,71.941,7.363,111.473
		l57.633-64.672v-0.059l-1.426-110.484l7.434,7.684l0,0h0.004l44.617,46.074l103.715-116.371L642,1241.355l72.563,36.188
		l35.82-40.195l-20.32-91.332l61.945,44.652l13.863-15.563l7.887-116.82l46.231,56.121l132.402-148.57
		c0.539,8.785,2.313,17.848,4.27,26.387c1.648,7.227,3.449,14.086,4.707,20.066l0.18,0.863c6.18,30.219,10.063,60.867,13.063,91.543
		c0.359,3.605,0.691,7.191,1.023,10.793c0.313,3.391,0.609,6.801,0.891,10.188c2.641,32.082,4.02,64.266,4.199,96.484
		c0.035,6.398,0.016,12.808-0.035,19.207c-0.34,39.977-2.461,79.941-6.078,119.848c-0.703,7.621-1.438,15.227-2.25,22.84
		c-3.59,34.082-8.234,68.109-13.805,101.965c-1.34,8.133-2.727,16.27-4.184,24.379c-6.016,33.934-12.91,67.695-20.527,101.199
		c-2,8.73-4.02,17.422-6.102,26.125c-6.531,27.238-13.488,54.32-20.824,81.18c-1.473,5.418-2.981,10.824-4.484,16.246
		c-2.395,8.629-4.824,17.254-7.305,25.887c-5.621,19.59-11.422,39.109-17.473,58.566c-4.848,14.512-9.523,29.094-14.27,43.641
		c-2.723,8.434-5.484,16.863-8.293,25.262c-2.5,7.484-5.023,14.953-7.637,22.41c-10.488,29.988-23.043,58.848-35.644,88
		c-2.742,6.375,1.207,7.633,6.894,7.844c7.824,0.313,15.59-0.711,23.391-0.711c10.516,0,21.047,0.016,31.559,0.016h64.148
		c35.066,0,70.121,0,105.172-0.016c17.539,0,35.059-0.012,52.602-0.012c1.355,0,2.879,0.125,4.449,0.258
		c1.473,0.105,2.98,0.215,4.465,0.227c0.074,0,0.16,0.012,0.242,0.012c0.039,0,0.066-0.004,0.102-0.004
		c0.891,0,1.766-0.066,2.605-0.172c0.191-0.031,0.371-0.059,0.559-0.094c0.855-0.145,1.688-0.34,2.438-0.66
		c1.477-0.645,2.715-1.688,3.52-3.32c2.41-4.93,1.816-11.094,2.625-16.363c5.809-37.973,8.605-76.488,11.293-114.773
		c0.066-0.902,0.125-1.793,0.188-2.684c0.051-0.77,0.098-1.539,0.148-2.309c0.375-5.375,0.707-10.758,1.02-16.148
		c0.063-1.074,0.113-2.152,0.172-3.238c0.371-6.398,0.691-12.805,1.008-19.211c0.152-3.25,0.332-6.5,0.473-9.746
		c0.039-0.879,0.094-1.758,0.125-2.641c0.016-0.352,0.035-0.691,0.051-1.043c0.008-0.309,0.023-0.629,0.035-0.945
		c0.141-3.305,0.227-6.613,0.348-9.922c0.234-6.059,0.465-12.121,0.645-18.188c0.039-1.461,0.105-2.918,0.156-4.375
		c0-0.141,0.004-0.277,0.008-0.422c0.016-0.602,0.035-1.191,0.051-1.797c0.008-0.375,0.023-0.746,0.027-1.113
		c0.008-0.125,0.012-0.254,0.012-0.387c0.059-2.086,0.074-4.172,0.125-6.262c0.234-9.227,0.41-18.461,0.551-27.691
		c0.055-3.273,0.117-6.543,0.16-9.813c0.012-0.848,0.031-1.688,0.039-2.523c0.07-5.672,0.113-11.344,0.152-17
		c0.047-6.094,0.063-12.176,0.078-18.273c0.004-1.063,0.004-2.145,0.004-3.199c0-0.621,0-1.25,0-1.875c0-0.414,0-0.832,0-1.242
		c0-2.512,0-5.023,0-7.535c0-0.16,0-0.328,0-0.488c0-0.809-0.004-1.617-0.004-2.438c0-0.281,0-0.559,0-0.84
		c-0.004-1.352-0.012-2.711-0.016-4.059c0-0.375,0-0.742-0.008-1.121c0-0.57,0-1.145,0-1.723c-0.008-0.617-0.008-1.211-0.012-1.828
		c0-0.492-0.004-0.98-0.004-1.465c-0.004-0.898-0.012-1.813-0.016-2.703c0-0.23,0-0.461-0.004-0.688
		c-0.004-1.168-0.004-2.348-0.016-3.508c0-0.242-0.004-0.484-0.004-0.727c-0.004-1.004-0.016-1.996-0.02-3
		c-0.004-0.223-0.004-0.457-0.004-0.688c-0.012-1.199-0.02-2.414-0.031-3.613c0-0.039,0-0.078,0-0.117
		c-0.004-0.848-0.008-1.695-0.02-2.539c0-0.035,0-0.074,0-0.105c0-0.191-0.008-0.387-0.008-0.586c0-0.469-0.004-0.93-0.012-1.402
		c-0.004-0.582-0.008-1.156-0.012-1.734c-0.133-13.898-0.328-27.797-0.59-41.703c-0.07-3.945-0.156-7.887-0.246-11.828
		c-0.027-1.375-0.051-2.754-0.086-4.137c-0.012-0.52-0.016-1.047-0.031-1.57c-0.379-16.758-0.859-33.52-1.438-50.273
		c-0.203-6.051-0.48-12.086-0.711-18.129c-0.363-9.563-0.699-19.125-1.129-28.684c-0.137-2.965-0.281-5.941-0.418-8.918
		c-0.086-1.828-0.172-3.672-0.258-5.496c-0.07-1.363-0.129-2.723-0.195-4.082v-0.016c-0.375-7.68-0.863-15.344-1.281-23.027
		c-0.531-9.738-1.023-19.488-1.625-29.223c-0.484-7.82-1.055-15.625-1.582-23.438c-0.746-11.055-1.457-22.125-2.293-33.18
		c-0.012-0.168-0.02-0.34-0.035-0.516c-0.41-5.684-0.859-11.348-1.305-17.024c-0.426-5.375-0.941-10.738-1.391-16.117
		c-0.82-9.777-1.637-19.551-2.523-29.316c-0.785-8.672-1.629-17.328-2.465-25.992c-0.977-10.035-1.961-20.078-3.012-30.105
		c-0.281-2.699-0.52-5.406-0.809-8.098c-0.574-5.539-1.176-11.059-1.801-16.578c-0.723-6.75-1.508-13.492-2.277-20.234
		c-1.168-10.035-2.379-20.082-3.621-30.133c-0.234-1.961-0.477-3.91-0.719-5.859c-1.273-10.133-2.582-20.266-3.988-30.387
		c-0.055-0.438-0.109-0.867-0.172-1.297c-0.848-6.082-1.723-12.164-2.633-18.238c-0.203-1.414-0.418-2.832-0.629-4.25
		c-0.375-2.457-0.766-4.902-1.152-7.352c-0.285-1.836-0.551-3.672-0.844-5.504c-0.758-4.707-1.574-9.414-2.383-14.117
		c-0.262-1.563-0.523-3.137-0.793-4.695c-0.551-3.164-1.152-6.316-1.73-9.477c-0.621-3.402-1.234-6.801-1.891-10.203
		c-0.535-2.805-1.121-5.602-1.676-8.402c-0.75-3.699-1.492-7.402-2.277-11.086c-0.578-2.723-1.184-5.441-1.781-8.16
		c-0.555-2.48-1.066-4.973-1.641-7.457c-0.008-0.031-0.012-0.059-0.02-0.09c-0.098-0.41-0.188-0.809-0.285-1.223
		c-0.02-0.098-0.043-0.195-0.066-0.293c-0.082-0.352-0.168-0.711-0.246-1.067c-0.027-0.113-0.047-0.215-0.078-0.332
		c-0.078-0.324-0.156-0.668-0.23-0.992c-0.031-0.137-0.066-0.273-0.094-0.406c-0.082-0.324-0.16-0.656-0.23-0.984
		c-0.027-0.125-0.066-0.242-0.09-0.371c-0.113-0.453-0.211-0.898-0.32-1.348c-1.051-4.359-2.18-8.809-3.391-13.254
		c-0.125-0.461-0.223-0.926-0.348-1.387c-0.727-2.641-1.492-5.281-2.281-7.906c-0.055-0.172-0.117-0.332-0.168-0.504
		c-0.992-3.254-2.043-6.488-3.176-9.695c-0.602-1.715-1.246-3.406-1.895-5.094c-0.152-0.391-0.289-0.793-0.441-1.188
		c-0.488-1.246-1.016-2.457-1.531-3.691c-0.355-0.852-0.695-1.719-1.066-2.566c-0.492-1.133-1.027-2.234-1.551-3.344
		c-0.238-0.527-0.477-1.058-0.727-1.578l153.043,75.723l21.875-69.34l51.023,105.383l18.672,9.246l40.75-64.582l15.309,92.305
		l48.27,23.875l53.75-60.707l2.805,88.691l139.711,69.105l24.148-59.426l4.023-9.902l40,102.996l0.023,0.059l77.648,38.41
		C1663.098,833.766,1337.145,836.047,1152.84,880.066z"/>
	<path style="fill:#006934;" d="M1152.84,880.066l113.293-53.543l-40.77-60.199l114.285,25.438l18.84-8.906l-25.332-72.035
		l81.875,45.305l48.676-23.016l-14.219-79.828l71.27,52.867l140.914-66.617l-31.59-55.82l-5.262-9.301l105.57,32.582l0.059,0.02
		l78.324-37.02c-6.324-2.723-12.582-5.32-18.809-7.867c-1.441-0.586-2.883-1.18-4.324-1.754c-6.109-2.469-12.191-4.875-18.215-7.18
		c-0.715-0.273-1.43-0.531-2.152-0.805c-5.52-2.09-10.992-4.106-16.43-6.059c-1.289-0.465-2.574-0.93-3.867-1.391
		c-5.875-2.078-11.711-4.09-17.5-6.016c-1.047-0.344-2.086-0.676-3.129-1.023c-5.172-1.695-10.309-3.336-15.406-4.906
		c-1.051-0.32-2.102-0.652-3.141-0.973c-5.688-1.73-11.324-3.379-16.918-4.953c-1.184-0.328-2.355-0.652-3.531-0.977
		c-5.137-1.418-10.23-2.781-15.277-4.07c-0.684-0.176-1.367-0.363-2.031-0.531c-5.523-1.387-10.988-2.699-16.41-3.945
		c-1.223-0.277-2.441-0.547-3.664-0.816c-5.414-1.219-10.809-2.383-16.137-3.449c-0.047-0.008-0.102-0.019-0.152-0.031
		c-5.387-1.07-10.727-2.055-16.027-2.98c-1.176-0.207-2.348-0.41-3.508-0.613c-5.23-0.883-10.406-1.715-15.543-2.461
		c-0.508-0.074-1.012-0.137-1.523-0.211c-4.742-0.684-9.438-1.285-14.105-1.84c-1.102-0.137-2.191-0.273-3.285-0.395
		c-4.965-0.566-9.898-1.078-14.77-1.516c-0.855-0.074-1.699-0.137-2.547-0.211c-4.344-0.367-8.66-0.688-12.938-0.949
		c-0.93-0.059-1.871-0.129-2.797-0.18c-4.758-0.273-9.477-0.48-14.152-0.629c-1-0.035-1.988-0.055-2.984-0.078
		c-4.234-0.113-8.434-0.18-12.594-0.188c-0.477-0.004-0.969-0.027-1.441-0.027c-0.137,0-0.273,0.016-0.41,0.016
		c-7.191,0.008-14.285,0.148-21.27,0.441c-0.168,0.012-0.332,0.02-0.5,0.031c-6.836,0.297-13.566,0.734-20.219,1.293
		c-0.555,0.051-1.102,0.105-1.645,0.152c-6.273,0.563-12.465,1.234-18.57,2.012c-0.707,0.09-1.391,0.18-2.09,0.273
		c-6,0.805-11.918,1.707-17.754,2.719c-0.652,0.113-1.305,0.223-1.961,0.34c-5.941,1.063-11.797,2.223-17.57,3.496
		c-0.461,0.102-0.934,0.199-1.398,0.301c-6.129,1.367-12.172,2.851-18.109,4.453c-0.059,0.016-0.113,0.023-0.172,0.039
		c-5.988,1.621-11.875,3.355-17.676,5.188c-0.402,0.129-0.805,0.266-1.203,0.394c-5.422,1.734-10.762,3.574-16.023,5.488
		c-0.586,0.215-1.164,0.434-1.738,0.641c-5.105,1.891-10.137,3.863-15.086,5.922c-0.59,0.246-1.184,0.496-1.777,0.738
		c-4.965,2.09-9.863,4.266-14.676,6.512c-0.496,0.226-0.984,0.453-1.469,0.68c-5.023,2.375-9.969,4.824-14.832,7.352
		c-0.227,0.117-0.445,0.227-0.664,0.344c-5.035,2.633-9.988,5.359-14.848,8.156c-0.277,0.156-0.539,0.309-0.816,0.473
		c-4.617,2.672-9.168,5.422-13.645,8.242c-0.477,0.297-0.945,0.605-1.422,0.902c-4.273,2.711-8.488,5.496-12.621,8.324
		c-0.527,0.367-1.051,0.727-1.566,1.086c-4.109,2.836-8.148,5.742-12.113,8.684c-0.469,0.348-0.945,0.695-1.402,1.047
		c-4.086,3.051-8.09,6.164-12.027,9.32c-0.297,0.238-0.594,0.469-0.887,0.707c-4.164,3.367-8.262,6.793-12.27,10.262
		c-0.148,0.125-0.285,0.242-0.422,0.363c-3.906,3.391-7.73,6.832-11.492,10.316c-0.359,0.336-0.723,0.676-1.086,1.023
		c-3.531,3.289-7.012,6.625-10.414,9.996c-0.441,0.438-0.887,0.879-1.328,1.32c-3.336,3.328-6.605,6.684-9.82,10.07
		c-0.422,0.445-0.836,0.879-1.254,1.32c-3.266,3.469-6.461,6.961-9.602,10.481c-0.305,0.348-0.621,0.688-0.922,1.031
		c-3.313,3.738-6.559,7.504-9.734,11.289c-0.102,0.117-0.207,0.234-0.301,0.356c-3.23,3.859-6.383,7.742-9.473,11.652
		c-0.27,0.324-0.516,0.656-0.781,0.988c-2.863,3.633-5.676,7.281-8.418,10.953c-0.352,0.477-0.703,0.949-1.063,1.422
		c-2.645,3.555-5.242,7.121-7.785,10.703c-0.352,0.5-0.711,1.008-1.066,1.504c-2.543,3.613-5.027,7.219-7.461,10.832
		c-0.293,0.438-0.594,0.867-0.887,1.305c-2.523,3.766-4.984,7.535-7.391,11.305c-0.168,0.258-0.336,0.516-0.504,0.781
		c-2.512,3.941-4.953,7.871-7.34,11.805c-0.191,0.309-0.375,0.621-0.57,0.934c-2.23,3.699-4.414,7.391-6.543,11.066
		c-0.277,0.492-0.555,0.973-0.836,1.457c-2.023,3.52-4,7.027-5.93,10.524c-0.305,0.555-0.605,1.101-0.906,1.648
		c-1.895,3.461-3.746,6.906-5.547,10.332c-0.277,0.523-0.555,1.047-0.828,1.566c-1.832,3.508-3.613,6.984-5.348,10.438
		c-0.133,0.262-0.273,0.531-0.41,0.797c0,0,0,0.012-0.008,0.019c47.594-185.094,47.355-492.391-401.676-636.418l34.738,79.359
		l0.059,0.023l100.996,44.777l-10.066,3.559l-60.492,21.336l62.5,142.797l88.457,6.949l-63.152,50.852l21.586,49.324l91.496,19.621
		l-66.422,37.676l8.363,19.09l102.879,55.887l-70.281,18.617l68.344,156.117c-0.148-0.176-0.309-0.371-0.457-0.547
		c-1.887-2.324-3.828-4.672-5.813-7.043c-0.324-0.391-0.645-0.777-0.977-1.168c-2-2.387-4.051-4.801-6.148-7.238
		c-0.344-0.398-0.68-0.789-1.027-1.195c-2.121-2.453-4.293-4.926-6.508-7.418c-0.34-0.387-0.676-0.77-1.02-1.156
		c-2.254-2.523-4.555-5.066-6.902-7.625c-0.336-0.367-0.66-0.726-0.996-1.09c-2.406-2.613-4.863-5.238-7.363-7.879
		c-0.301-0.316-0.59-0.629-0.887-0.941c-2.57-2.699-5.199-5.41-7.871-8.129c-0.301-0.309-0.598-0.613-0.902-0.918
		c-2.734-2.777-5.519-5.559-8.367-8.352c-0.316-0.305-0.641-0.617-0.965-0.934c-2.762-2.699-5.574-5.402-8.434-8.105
		c-0.394-0.367-0.789-0.738-1.184-1.109c-2.785-2.613-5.605-5.227-8.48-7.832c-0.484-0.438-0.973-0.879-1.457-1.316
		c-2.813-2.539-5.668-5.07-8.563-7.602c-0.559-0.481-1.125-0.969-1.688-1.457c-2.859-2.469-5.762-4.938-8.699-7.395
		c-0.621-0.516-1.242-1.031-1.863-1.543c-2.93-2.426-5.891-4.84-8.902-7.234c-0.66-0.527-1.32-1.055-1.984-1.582
		c-3.004-2.367-6.043-4.731-9.117-7.066c-0.703-0.539-1.414-1.07-2.121-1.606c-3.09-2.324-6.219-4.637-9.383-6.926
		c-0.719-0.52-1.434-1.035-2.152-1.547c-3.199-2.289-6.434-4.551-9.711-6.801c-0.723-0.492-1.449-0.988-2.176-1.48
		c-3.32-2.258-6.684-4.477-10.086-6.676c-0.703-0.457-1.402-0.914-2.113-1.367c-3.473-2.223-6.992-4.414-10.547-6.578
		c-0.66-0.406-1.313-0.805-1.973-1.203c-3.656-2.203-7.359-4.359-11.094-6.484c-0.59-0.344-1.172-0.68-1.762-1.008
		c-3.867-2.184-7.781-4.316-11.734-6.414c-0.484-0.262-0.969-0.516-1.457-0.777c-4.137-2.176-8.324-4.297-12.555-6.371
		c-0.469-0.227-0.938-0.457-1.406-0.68c-4.25-2.066-8.551-4.09-12.895-6.043c-0.469-0.207-0.945-0.41-1.414-0.617
		c-4.223-1.883-8.484-3.715-12.793-5.48c-0.574-0.234-1.156-0.465-1.727-0.691c-4.238-1.723-8.512-3.395-12.832-4.992
		c-0.644-0.242-1.289-0.465-1.938-0.703c-4.277-1.563-8.598-3.078-12.957-4.523c-0.699-0.231-1.402-0.457-2.106-0.684
		c-4.34-1.41-8.715-2.77-13.137-4.051c-0.734-0.215-1.469-0.426-2.203-0.633c-4.422-1.262-8.879-2.461-13.379-3.594
		c-0.754-0.184-1.504-0.375-2.258-0.555c-4.523-1.109-9.09-2.148-13.695-3.117c-0.742-0.16-1.481-0.313-2.223-0.469
		c-4.656-0.949-9.352-1.82-14.086-2.625c-0.715-0.121-1.426-0.242-2.145-0.367c-4.801-0.777-9.644-1.484-14.523-2.109
		c-0.668-0.09-1.332-0.176-2-0.258c-4.977-0.613-9.996-1.133-15.059-1.574c-0.59-0.051-1.176-0.105-1.77-0.156
		c-5.188-0.426-10.422-0.754-15.703-0.984c-0.473-0.023-0.938-0.051-1.41-0.066c-5.445-0.223-10.934-0.336-16.465-0.348
		c-0.223,0-0.441-0.012-0.668-0.012c-0.133,0-0.274,0.008-0.414,0.008c-3.27,0-6.551,0.043-9.859,0.121
		c-0.801,0.02-1.609,0.055-2.414,0.086c-2.535,0.07-5.086,0.164-7.641,0.289c-1.094,0.055-2.191,0.113-3.293,0.172
		c-2.367,0.133-4.742,0.289-7.121,0.457c-1.07,0.078-2.144,0.152-3.219,0.234c-2.813,0.231-5.641,0.484-8.48,0.766
		c-0.582,0.055-1.16,0.102-1.742,0.164c-3.457,0.363-6.934,0.762-10.418,1.203c-0.77,0.098-1.543,0.211-2.313,0.313
		c-2.719,0.356-5.449,0.746-8.188,1.16c-1.074,0.16-2.156,0.332-3.234,0.508c-2.551,0.398-5.109,0.828-7.68,1.281
		c-1.031,0.184-2.063,0.359-3.098,0.547c-3.102,0.574-6.207,1.168-9.336,1.805c-0.445,0.094-0.887,0.172-1.332,0.27
		c-3.625,0.75-7.27,1.551-10.922,2.398c-0.77,0.172-1.551,0.375-2.32,0.555c-2.855,0.676-5.727,1.383-8.602,2.117
		c-1.09,0.277-2.184,0.566-3.273,0.855c-2.684,0.703-5.379,1.441-8.086,2.199c-1.035,0.293-2.07,0.578-3.113,0.879
		c-3.367,0.973-6.746,1.977-10.141,3.031c-0.305,0.098-0.609,0.18-0.914,0.277c-3.773,1.18-7.57,2.422-11.379,3.703
		c-0.828,0.277-1.656,0.574-2.48,0.855c-2.938,1.008-5.883,2.047-8.84,3.117c-1.137,0.41-2.277,0.828-3.418,1.254
		c-2.777,1.023-5.574,2.086-8.367,3.172c-1.074,0.414-2.145,0.824-3.227,1.25c-3.547,1.398-7.109,2.848-10.684,4.344
		c-0.258,0.101-0.512,0.203-0.766,0.305c-3.902,1.644-7.816,3.34-11.746,5.094c-0.914,0.398-1.824,0.824-2.734,1.23
		c-2.98,1.34-5.973,2.719-8.973,4.129c-1.207,0.57-2.414,1.141-3.621,1.719c-2.855,1.371-5.719,2.762-8.586,4.184
		c-1.129,0.559-2.254,1.113-3.387,1.676c-3.723,1.871-7.465,3.797-11.219,5.773c-0.199,0.109-0.398,0.207-0.605,0.32
		c-4.008,2.109-8.027,4.297-12.066,6.535c-1.031,0.57-2.07,1.164-3.105,1.746c-2.992,1.676-5.988,3.379-8.996,5.121
		c-1.289,0.746-2.578,1.504-3.871,2.258c-2.906,1.711-5.82,3.453-8.734,5.219c-1.199,0.723-2.387,1.434-3.586,2.168
		c-3.875,2.375-7.754,4.789-11.648,7.281c-0.184,0.109-0.367,0.227-0.551,0.344c-4.102,2.621-8.223,5.316-12.355,8.059
		c-1.16,0.77-2.328,1.57-3.496,2.355c-2.977,1.996-5.961,4.027-8.957,6.09c-1.398,0.965-2.801,1.949-4.207,2.926
		c-2.918,2.039-5.844,4.117-8.781,6.219c-1.289,0.926-2.574,1.836-3.863,2.777c-4.012,2.906-8.035,5.859-12.07,8.887
		c-0.16,0.117-0.316,0.234-0.477,0.352c-4.199,3.152-8.41,6.387-12.641,9.664c-1.266,0.988-2.547,2.004-3.816,3
		c-3,2.352-6.004,4.734-9.016,7.152c-1.473,1.18-2.945,2.371-4.418,3.563c-2.996,2.438-6.004,4.91-9.016,7.41
		c-1.324,1.098-2.641,2.183-3.965,3.293c-4.285,3.598-8.59,7.242-12.906,10.973l85.836,11.648l0.051-0.027l90.82-62.93
		l-2.207,10.453l-13.277,62.758l154.461,20.969l51.98-71.902l10.543,80.395l53.352,7.246l64.379-67.898l-2.406,76.32l20.652,2.797
		l101.277-58.742l-20.699,69.699l162.211,22.023c-89.773,5.707-240.945,31.727-354.141,135.219
		c-0.602,0.547-1.203,1.082-1.805,1.633c-84.934,78.551-148.004,201.211-146.727,392.414c0.234,34.836,2.602,71.941,7.363,111.473
		l57.633-64.672v-0.059l-1.426-110.484l0,0l7.434,7.684l0,0h0.004l44.617,46.074l103.715-116.371L642,1241.355l72.563,36.188
		l35.82-40.195l-20.32-91.332l61.945,44.652l13.863-15.563l7.887-116.82l46.231,56.121l132.402-148.57
		c-0.879-14.441,1.652-28.109,12.25-37.492c0.445-0.398,0.844-0.816,1.32-1.203c5.125-4.117,11.438-6.477,17.965-7.324
		c1.906-0.242,3.754-0.426,5.57-0.559c1.816-0.125,3.582-0.18,5.316-0.191c0.207,0,0.43-0.023,0.637-0.023
		c0.301,0,0.574,0.035,0.875,0.039c0.043,0,0.074,0.004,0.113,0.004c1.18,0.027,2.313,0.098,3.465,0.168
		c1.293,0.07,2.594,0.144,3.836,0.285c1.133,0.129,2.223,0.313,3.316,0.484c1.191,0.195,2.379,0.391,3.527,0.641
		c1.07,0.242,2.113,0.519,3.145,0.801c1.102,0.297,2.184,0.609,3.242,0.961c1.012,0.344,2,0.715,2.984,1.102
		c1.004,0.398,2.004,0.813,2.98,1.254c0.949,0.442,1.883,0.902,2.809,1.391c0.93,0.488,1.844,0.992,2.738,1.52
		c0.902,0.539,1.777,1.086,2.645,1.668c0.859,0.559,1.688,1.152,2.516,1.762c0.836,0.617,1.664,1.254,2.473,1.914
		c0.793,0.644,1.551,1.316,2.316,2c0.785,0.695,1.555,1.402,2.313,2.141c0.723,0.719,1.426,1.453,2.117,2.199
		c0.73,0.781,1.461,1.559,2.156,2.367c0.668,0.773,1.305,1.574,1.949,2.379c0.676,0.848,1.352,1.684,2.004,2.566
		c0.609,0.828,1.188,1.68,1.781,2.535c0.621,0.91,1.258,1.813,1.855,2.758c0.559,0.867,1.09,1.758,1.621,2.648
		c0.586,0.98,1.172,1.941,1.734,2.938c0.5,0.891,0.969,1.816,1.453,2.73c0.547,1.035,1.109,2.066,1.629,3.125
		c0.184,0.383,0.371,0.77,0.555,1.156l153.043,75.723l21.875-69.34l51.023,105.383l18.672,9.246l40.75-64.582l15.309,92.305
		l48.27,23.875l53.75-60.707l2.805,88.691l139.711,69.105l24.148-59.426l4.023-9.902l40,102.996l0.023,0.059l77.648,38.41
		C1663.098,833.766,1337.145,836.047,1152.84,880.066z"/>
	<path style="fill:#58AB32;" d="M685.891,150.176l34.738,79.359l0.059,0.023l100.996,44.777l-10.066,3.559l-60.492,21.336
		l62.5,142.797l88.457,6.949l-63.152,50.852l21.586,49.324l91.496,19.621l-66.422,37.676l8.363,19.09l102.879,55.887l-70.281,18.617
		l68.344,156.117l0,0c0.149,0.188,0.289,0.363,0.441,0.555c2.117,2.606,4.172,5.18,6.168,7.703c0.219,0.277,0.441,0.555,0.656,0.828
		c2.144,2.715,4.215,5.383,6.215,7.996c0.07,0.082,0.137,0.176,0.203,0.258c1.984,2.586,3.891,5.121,5.734,7.594
		c0.184,0.25,0.359,0.492,0.535,0.731c1.73,2.324,3.398,4.59,4.996,6.805c0.195,0.262,0.387,0.523,0.574,0.781
		c1.621,2.246,3.172,4.426,4.668,6.535c0.102,0.144,0.203,0.293,0.305,0.434c1.574,2.234,3.082,4.398,4.512,6.48
		c0.047,0.066,0.09,0.137,0.141,0.215c1.387,2.012,2.691,3.945,3.938,5.801c0.121,0.172,0.23,0.34,0.348,0.512
		c1.184,1.769,2.305,3.461,3.352,5.07c0.055,0.074,0.113,0.164,0.164,0.242c0.055-0.203,0.117-0.414,0.168-0.609
		c0.238-0.848,0.484-1.711,0.734-2.598c0.098-0.332,0.188-0.664,0.289-1.004c0.34-1.18,0.684-2.379,1.047-3.617
		c0.012-0.027,0.016-0.047,0.02-0.063c0.008-0.031,0.012-0.051,0.023-0.07c0.016-0.066,0.043-0.133,0.059-0.195
		c0.438-1.488,0.895-3.027,1.375-4.602c0.086-0.293,0.168-0.57,0.254-0.863c0.492-1.598,0.992-3.242,1.523-4.922
		c0.109-0.359,0.223-0.719,0.332-1.074c0.539-1.711,1.094-3.457,1.68-5.25c0.09-0.289,0.184-0.586,0.281-0.875
		c0.531-1.641,1.078-3.316,1.652-5.027c0.117-0.359,0.23-0.715,0.355-1.074c0.609-1.84,1.25-3.711,1.906-5.613
		c0.172-0.504,0.344-1.012,0.516-1.512c0.66-1.895,1.324-3.816,2.027-5.762c0.172-0.508,0.355-1.012,0.539-1.516
		c0.641-1.773,1.289-3.582,1.957-5.41c0.148-0.399,0.289-0.793,0.441-1.191c0.746-2.027,1.52-4.098,2.309-6.184
		c0.238-0.629,0.48-1.262,0.727-1.895c0.773-2.051,1.582-4.129,2.406-6.227c0.254-0.656,0.52-1.313,0.777-1.969
		c0.766-1.941,1.551-3.898,2.352-5.875c0.238-0.602,0.484-1.199,0.727-1.805c0.824-2.008,1.672-4.047,2.527-6.102
		c0.293-0.699,0.586-1.406,0.887-2.113c0.938-2.223,1.902-4.457,2.875-6.727c0.313-0.703,0.625-1.414,0.926-2.121
		c1.012-2.313,2.043-4.633,3.098-6.984c0.23-0.52,0.473-1.043,0.707-1.57c0.949-2.09,1.914-4.203,2.906-6.328
		c0.316-0.68,0.621-1.344,0.938-2.027c1.113-2.379,2.25-4.77,3.406-7.176c0.367-0.762,0.73-1.516,1.102-2.277
		c1.188-2.445,2.398-4.91,3.641-7.391c0.078-0.16,0.156-0.324,0.234-0.488C1135.16,601.5,1134.922,294.203,685.891,150.176z"/>
	<path style="fill:#A4C735;" d="M995.336,856.715c2.117,2.606,4.172,5.18,6.168,7.703c0.219,0.277,0.441,0.555,0.656,0.828
		c2.144,2.715,4.215,5.383,6.215,7.996c0.07,0.082,0.137,0.176,0.203,0.258c1.984,2.586,3.891,5.121,5.734,7.594
		c0.184,0.25,0.359,0.492,0.535,0.731c1.73,2.324,3.398,4.59,4.996,6.805c0.195,0.262,0.387,0.523,0.574,0.781
		c1.621,2.246,3.172,4.426,4.668,6.535c0.102,0.144,0.203,0.293,0.305,0.434c1.574,2.234,3.082,4.398,4.512,6.48
		c0.047,0.066,0.09,0.137,0.141,0.215c1.387,2.012,2.691,3.945,3.938,5.801c0.121,0.172,0.23,0.34,0.348,0.512
		c1.184,1.769,2.305,3.461,3.352,5.07c0.055,0.074,0.113,0.164,0.164,0.242c0.055-0.203,0.117-0.414,0.168-0.609
		c0.238-0.848,0.484-1.711,0.734-2.598c0.098-0.332,0.188-0.664,0.289-1.004c0.34-1.18,0.684-2.379,1.047-3.617
		c24.973-152.398,8.848-313.277-60.535-451.047c-37.25-73.969-94.563-143.328-167.93-177.93l-60.492,21.336l62.5,142.797
		l88.457,6.949l-63.152,50.852l21.586,49.324l91.496,19.621l-66.422,37.676l8.363,19.09l102.879,55.887l-70.281,18.617
		l68.344,156.117l0,0C995.043,856.348,995.184,856.523,995.336,856.715z"/>
	<path style="fill:#A4C735;" d="M1004.641,928.344l-10.863-1.477l-37.863-5.133c-89.773,5.707-240.945,31.727-354.141,135.219
		c-0.602,0.547-1.203,1.082-1.805,1.633c-84.934,78.551-148.004,201.211-146.727,392.414c0.234,34.836,2.602,71.941,7.363,111.473
		l57.633-64.672v-0.059l-1.426-110.484l0,0l7.434,7.684l0,0h0.004l44.617,46.074l103.715-116.371L642,1241.355l72.563,36.188
		l35.82-40.195l-20.32-91.332l61.945,44.652l13.863-15.563l7.887-116.82l46.231,56.121l132.402-148.57
		C991.512,951.394,994.043,937.727,1004.641,928.344z"/>
	<path style="fill:#58AB32;" d="M993.777,926.867l-37.863-5.133c-89.773,5.707-240.945,31.727-354.141,135.219
		c-0.602,0.547-1.203,1.082-1.805,1.633c-84.934,78.551-148.004,201.211-146.727,392.414c0.234,34.836,2.602,71.941,7.363,111.473
		l57.633-64.672v-0.059l-1.426-110.484l0,0l7.434,7.684l0,0c0.852-81.117,39.984-162.141,91.668-226.84
		C710.727,1049.426,847.43,968.356,993.777,926.867z"/>
	<path style="fill:#4A8C33;" d="M993.777,926.867l10.863,1.477c0.445-0.398,0.844-0.816,1.32-1.203
		c5.125-4.117,11.438-6.477,17.965-7.324c1.906-0.242,3.754-0.426,5.57-0.559c1.816-0.125,3.582-0.18,5.316-0.191
		c1.031-0.445,2.102-0.91,3.23-1.391c-0.387,0.16-0.785,0.328-1.16,0.492c0.094-0.332,0.184-0.66,0.273-1
		C918.75,812.918,769.934,740.086,612.773,727.316c-13.465-1.09-27.117-1.668-40.809-1.668
		c-70.234-0.004-141.84,15.082-198.523,52.422l-13.277,62.758l154.461,20.969l51.98-71.902l10.543,80.395l53.352,7.246
		l64.379-67.898l-2.406,76.32l20.652,2.797l101.277-58.742l-20.699,69.699l162.211,22.023L993.777,926.867z"/>
	<path style="fill:#4A8C33;" d="M1386.586,607.559c-146.207,59.711-266.25,174.32-347.68,309.742
		c-0.059,0.027-0.109,0.047-0.164,0.066c21.914-9.355,62.445-24.965,114.098-37.301l113.293-53.543l-40.77-60.199l114.285,25.438
		l18.84-8.906l-25.332-72.035l81.875,45.305l48.676-23.016l-14.219-79.828l71.27,52.867l140.914-66.617l-31.59-55.82
		c-25.801-7.309-52.773-10.598-80.102-10.598C1494.656,573.113,1437.902,586.606,1386.586,607.559z"/>
	<path style="fill:#A4C735;" d="M1152.84,880.066c-51.652,12.336-92.184,27.945-114.098,37.301
		c-0.238,0.109-0.465,0.203-0.699,0.309c-1.129,0.48-2.199,0.945-3.23,1.391c0.207,0,0.43-0.023,0.637-0.023
		c0.301,0,0.574,0.035,0.875,0.039c0.043,0,0.074,0.004,0.113,0.004c1.18,0.027,2.313,0.098,3.465,0.168
		c1.293,0.07,2.594,0.144,3.836,0.285c1.133,0.129,2.223,0.313,3.316,0.484c1.191,0.195,2.379,0.391,3.527,0.641
		c1.07,0.242,2.113,0.519,3.145,0.801c1.102,0.297,2.184,0.609,3.242,0.961c1.012,0.344,2,0.715,2.984,1.102
		c1.004,0.398,2.004,0.813,2.98,1.254c0.949,0.442,1.883,0.902,2.809,1.391c0.93,0.488,1.844,0.992,2.738,1.52
		c0.902,0.539,1.777,1.086,2.645,1.668c0.859,0.559,1.688,1.152,2.516,1.762c0.836,0.617,1.664,1.254,2.473,1.914
		c0.793,0.644,1.551,1.316,2.316,2c0.785,0.695,1.555,1.402,2.313,2.141c0.723,0.719,1.426,1.453,2.117,2.199
		c0.73,0.781,1.461,1.559,2.156,2.367c0.668,0.773,1.305,1.574,1.949,2.379c0.676,0.848,1.352,1.684,2.004,2.566
		c0.609,0.828,1.188,1.68,1.781,2.535c0.621,0.91,1.258,1.813,1.855,2.758c0.559,0.867,1.09,1.758,1.621,2.648
		c0.586,0.98,1.172,1.941,1.734,2.938c0.5,0.891,0.969,1.816,1.453,2.73c0.547,1.035,1.109,2.066,1.629,3.125
		c0.184,0.383,0.371,0.77,0.555,1.156l153.043,75.723l21.875-69.34l51.023,105.383l18.672,9.246l40.75-64.582l15.309,92.305
		l48.27,23.875l53.75-60.707l2.805,88.691l139.711,69.105l24.148-59.426l4.023-9.902l40,102.996l0.023,0.059l77.648,38.41
		C1663.098,833.766,1337.145,836.047,1152.84,880.066z"/>
	<path style="fill:#58AB32;" d="M1038.742,917.367c-0.238,0.109-0.465,0.203-0.699,0.309c-1.129,0.48-2.199,0.945-3.23,1.391
		c0.207,0,0.43-0.023,0.637-0.023c0.301,0,0.574,0.035,0.875,0.039c157.938-21.172,323.977,1.477,462.758,79.699
		c72.137,40.668,138.734,101.164,169.871,176.07l4.023-9.902l40,102.996l0.023,0.059l77.648,38.41
		c-127.551-472.648-453.504-470.367-637.809-426.348C1101.188,892.402,1060.656,908.012,1038.742,917.367z"/>
	<g>
		<path style="fill:#C46C30;" d="M1058.574,1610.559c18.164-3.344,36.5-5.473,54.91-6.527c0.004-0.008,0.004-0.02,0.008-0.027
			c7.027-0.406,14.063-0.645,21.109-0.723c1.184-0.008,2.355-0.02,3.535-0.02c11.539,0,23.031,0.605,34.535,1.227
			c-0.07-3.945-0.156-7.887-0.246-11.828c-0.027-1.375-0.051-2.754-0.086-4.137c-0.012-0.52-0.016-1.047-0.031-1.57
			c-12.484-1.648-25.129-2.359-37.707-2.695c-3.402-0.086-6.813-0.133-10.223-0.133c-2.504,0-5.02,0.02-7.531,0.074
			c-0.008,0.012-0.008,0.031-0.012,0.051c-20.914,0.391-41.813,2.355-62.457,5.793c-26.504,4.395-52.617,11.289-77.84,20.551
			c-0.895,0.332-1.801,0.66-2.695,1.004c-2,8.73-4.02,17.422-6.102,26.125c5.719-2.438,11.488-4.711,17.309-6.883
			C1008.906,1621.934,1033.531,1615.148,1058.574,1610.559z"/>
		<path style="fill:#C46C30;" d="M1069.945,1490.449c19.258-2.898,38.75-3.961,58.223-3.598c0-0.023,0-0.051,0-0.078
			c4.371,0.078,8.738,0.238,13.098,0.469c9.285,0.477,18.547,1.375,27.766,2.625c-0.137-2.965-0.281-5.941-0.418-8.918
			c-0.086-1.828-0.172-3.672-0.258-5.496c-0.07-1.363-0.129-2.723-0.195-4.082v-0.016c-8.918-1.488-17.906-2.578-26.895-3.387
			c-3.941-0.352-7.887-0.629-11.84-0.832c0,0.008,0,0.02-0.004,0.027c-21.238-1.09-42.598-0.082-63.668,2.77
			c-22.848,3.094-45.406,8.5-67.199,16.086c-1.34,8.133-2.727,16.27-4.184,24.379c2.121-0.82,4.23-1.633,6.367-2.41
			C1023.137,1499.758,1046.359,1494.004,1069.945,1490.449z"/>
		<path style="fill:#C46C30;" d="M1043.781,998.707c5.367-0.988,10.801-1.672,16.27-2.121c-0.004-0.008-0.012-0.016-0.02-0.031
			c4.738-0.387,9.496-0.582,14.242-0.582c7.973,0,15.934,0.543,23.758,1.574c4.852,0.645,9.641,1.52,14.402,2.598
			c-0.727-2.641-1.492-5.281-2.281-7.906c-0.055-0.172-0.117-0.332-0.168-0.504c-0.996-3.254-2.043-6.492-3.176-9.695
			c-1.789-0.395-3.586-0.746-5.387-1.07c-11.188-2.031-22.422-3.051-33.668-3.051c-4.789,0-9.586,0.184-14.387,0.555
			c0.012,0.004,0.012,0.019,0.016,0.031c-4.453,0.34-8.902,0.809-13.352,1.469c-14.961,2.219-29.527,6.398-43.371,12.25
			c1.648,7.227,3.449,14.086,4.707,20.066C1014.789,1006.012,1029.035,1001.43,1043.781,998.707z"/>
		<path style="fill:#C46C30;" d="M1064.289,1839.059c-0.539,0-1.074,0-1.609,0c-6.039,0.023-12.074,0.148-18.109,0.367l-0.004,0.016
			c-44.727,1.66-89.285,8.859-132.297,21.168c-2.98,0.844-5.938,1.723-8.883,2.633c-2.723,8.434-5.484,16.863-8.293,25.262
			c4.363-1.477,8.742-2.898,13.137-4.27c23.129-7.172,46.699-12.828,70.551-16.91c18.77-3.215,37.715-5.414,56.73-6.699
			c0-0.008,0.008-0.02,0.012-0.027c13.289-0.898,26.609-1.336,39.934-1.336c16.551,0,33.102,0.672,49.574,1.996
			c14.164,1.141,28.332,2.793,42.418,4.777l0.762,0.117c0.375-5.375,0.707-10.758,1.02-16.148
			c-10.48-2.301-21.047-4.203-31.688-5.684C1113.23,1840.914,1088.84,1839.051,1064.289,1839.059z"/>
		<path style="fill:#C46C30;" d="M1145.902,1709.875c-15.813-1.75-31.688-2.66-47.574-2.66c-2.762,0-5.52,0.027-8.277,0.078
			c-0.008,0.027-0.012,0.035-0.016,0.051c-5.199,0.102-10.391,0.258-15.586,0.563c-45.051,2.613-89.648,11.734-132.016,27.242
			c-2.395,8.629-4.824,17.254-7.305,25.887c6.234-2.543,12.535-4.941,18.894-7.211c27.355-9.684,55.559-16.609,84.207-21.219
			c15.199-2.453,30.566-4.051,45.98-4.934c0-0.012,0.012-0.016,0.012-0.023c9.531-0.547,19.094-0.809,28.629-0.809
			c4.027,0,8.047,0.047,12.063,0.141c14.004,0.316,27.973,1.285,41.887,2.859c2.117,0.234,4.262,0.531,6.414,0.848
			c0.07-5.672,0.113-11.344,0.152-17C1164.27,1712.09,1155.082,1710.883,1145.902,1709.875z"/>
		<path style="fill:#C46C30;" d="M1129.527,1341.805c0.004,0.012,0.004,0.031,0.004,0.031c-18.582-0.859-37.168,0.234-55.598,3.133
			c-20.328,3.192-40.215,8.656-59.324,16.246c-0.703,7.621-1.438,15.227-2.25,22.84c0.855-0.375,1.719-0.769,2.578-1.152
			c20.031-8.898,41.293-15.227,62.883-19.035c17.273-3.07,34.941-4.379,52.516-4.109c0-0.027,0-0.059,0-0.086
			c3.953,0.059,7.902,0.203,11.84,0.434c6.426,0.363,12.805,1.008,19.168,1.867c-0.41-5.684-0.859-11.348-1.305-17.024
			c-5.504-0.855-11.02-1.555-16.582-2.117C1138.813,1342.367,1134.176,1342.02,1129.527,1341.805z"/>
		<path style="fill:#C46C30;" d="M1116.047,1215.098c-10.988-0.684-21.891-0.84-32.438-0.606
			c-21.195,0.477-42.254,3.074-62.887,7.668c0.035,6.398,0.016,12.808-0.035,19.207c20.633-5.023,41.758-8.043,62.922-9.141
			c11.684-0.605,23.391-0.496,35.074,0.113c-0.004-0.023-0.004-0.051-0.004-0.07c6.949,0.355,13.902,0.922,20.832,1.672
			c3.457,0.387,6.906,0.848,10.328,1.379c-0.574-5.539-1.176-11.059-1.801-16.578c-10.586-1.824-21.332-2.992-31.992-3.66V1215.098z
			"/>
		<path style="fill:#C46C30;" d="M1090.035,1092.691c0.008,0.031,0.023,0.066,0.035,0.102c-8.168,0.113-16.328,0.492-24.438,1.34
			c-17.289,1.801-34.414,5.395-51.023,10.563c0.359,3.605,0.691,7.191,1.023,10.793c0.313,3.391,0.609,6.801,0.891,10.188
			c16.813-5.723,34.129-9.672,51.727-12.203c8.789-1.266,17.664-1.992,26.551-2.309c-0.008-0.012-0.012-0.023-0.012-0.043
			c3.184-0.105,6.375-0.172,9.566-0.172c6.898,0,13.797,0.27,20.676,0.758c3.207,0.227,6.41,0.531,9.598,0.887
			c-0.203-1.414-0.418-2.832-0.629-4.25c-0.375-2.457-0.766-4.902-1.152-7.352c-0.289-1.836-0.566-3.672-0.859-5.512l0,0
			c-1.859-0.273-3.738-0.523-5.621-0.77c-10.816-1.371-21.715-2.047-32.629-2.047
			C1092.5,1092.664,1091.273,1092.676,1090.035,1092.691z"/>
	</g>
	<path style="fill:#E68955;" d="M1173.449,1681.563c0-0.16,0-0.328,0-0.488c0-0.809-0.004-1.617-0.004-2.438c0-0.281,0-0.559,0-0.84
		c-0.004-1.352-0.012-2.711-0.016-4.059c0-0.375,0-0.742-0.008-1.121c0-0.57,0-1.145,0-1.723c-0.008-0.617-0.008-1.211-0.012-1.828
		c0-0.492-0.004-0.98-0.004-1.465c-0.004-0.898-0.012-1.813-0.016-2.703c0-0.23,0-0.461-0.004-0.688
		c-0.004-1.168-0.004-2.348-0.016-3.508c0-0.242-0.004-0.484-0.004-0.727c-0.004-1.004-0.016-1.996-0.02-3
		c-0.004-0.223-0.004-0.457-0.004-0.688c-0.012-1.199-0.02-2.414-0.031-3.613c0-0.039,0-0.078,0-0.117
		c-0.004-0.848-0.008-1.695-0.02-2.539c0-0.035,0-0.074,0-0.105c0-0.191-0.008-0.387-0.008-0.586c0-0.469-0.004-0.93-0.012-1.402
		c-0.004-0.582-0.008-1.156-0.012-1.734c-0.133-13.898-0.328-27.797-0.59-41.703c-0.07-3.945-0.156-7.887-0.246-11.828
		c-0.027-1.375-0.051-2.754-0.086-4.137c-0.012-0.52-0.016-1.047-0.031-1.57c-0.379-16.758-0.859-33.52-1.438-50.273
		c-0.203-6.051-0.48-12.086-0.711-18.129c-0.363-9.563-0.699-19.125-1.129-28.684c-0.137-2.965-0.281-5.941-0.418-8.918
		c-0.086-1.828-0.172-3.672-0.258-5.496c-0.07-1.363-0.129-2.723-0.195-4.082v-0.016c-0.375-7.68-0.863-15.344-1.281-23.027
		c-0.531-9.738-1.023-19.488-1.625-29.223c-0.484-7.82-1.055-15.625-1.582-23.438c-0.746-11.055-1.457-22.125-2.293-33.18
		c-0.012-0.168-0.02-0.34-0.035-0.516c-0.41-5.684-0.859-11.348-1.305-17.024c-0.426-5.375-0.941-10.738-1.391-16.117
		c-0.82-9.777-1.637-19.551-2.523-29.316c-0.785-8.672-1.629-17.328-2.465-25.992c-0.977-10.035-1.961-20.078-3.012-30.105
		c-0.281-2.699-0.52-5.406-0.809-8.098c-0.574-5.539-1.176-11.059-1.801-16.578c-0.723-6.75-1.508-13.492-2.277-20.234
		c-1.168-10.035-2.379-20.082-3.621-30.133c-0.234-1.961-0.477-3.91-0.719-5.859c-1.273-10.133-2.582-20.266-3.988-30.387
		c-0.055-0.438-0.109-0.867-0.172-1.297c-0.848-6.082-1.723-12.164-2.633-18.238c-0.203-1.414-0.418-2.832-0.629-4.25
		c-0.375-2.457-0.766-4.902-1.152-7.352c-0.289-1.836-0.566-3.672-0.859-5.512l0,0c-0.754-4.699-1.559-9.406-2.367-14.109
		c-0.262-1.563-0.523-3.137-0.793-4.695c-0.551-3.164-1.152-6.316-1.73-9.477c-0.621-3.402-1.234-6.801-1.891-10.203
		c-0.535-2.805-1.121-5.602-1.676-8.402c-0.75-3.699-1.492-7.402-2.277-11.086c-0.578-2.723-1.184-5.441-1.781-8.16
		c-0.555-2.48-1.066-4.973-1.641-7.457c-0.008-0.031-0.012-0.059-0.02-0.09c-0.098-0.41-0.188-0.809-0.285-1.223
		c-0.02-0.098-0.043-0.195-0.066-0.293c-0.082-0.352-0.168-0.711-0.246-1.067c-0.027-0.113-0.047-0.215-0.078-0.332
		c-0.078-0.324-0.156-0.668-0.23-0.992c-0.031-0.137-0.066-0.273-0.094-0.406c-0.082-0.324-0.16-0.656-0.23-0.984
		c-0.027-0.125-0.066-0.242-0.09-0.371c-0.113-0.453-0.211-0.898-0.32-1.348c-1.051-4.359-2.18-8.809-3.391-13.254
		c-0.125-0.461-0.223-0.926-0.348-1.387c-0.727-2.641-1.492-5.281-2.281-7.906c-0.055-0.172-0.117-0.332-0.168-0.504
		c-0.996-3.254-2.043-6.492-3.176-9.695c-0.609-1.715-1.246-3.41-1.895-5.094c-0.152-0.391-0.289-0.793-0.441-1.188
		c-0.488-1.246-1.016-2.457-1.531-3.691c-0.355-0.852-0.695-1.719-1.066-2.566c-0.492-1.133-1.027-2.234-1.551-3.344
		c-0.238-0.527-0.477-1.058-0.727-1.578c-0.184-0.387-0.371-0.773-0.555-1.156c-0.52-1.059-1.082-2.09-1.629-3.125
		c-0.484-0.914-0.953-1.84-1.453-2.73c-0.563-0.996-1.148-1.957-1.734-2.938c-0.531-0.891-1.063-1.781-1.621-2.648
		c-0.598-0.945-1.234-1.848-1.855-2.758c-0.594-0.856-1.172-1.707-1.781-2.535c-0.652-0.883-1.328-1.719-2.004-2.566
		c-0.645-0.805-1.281-1.605-1.949-2.379c-0.695-0.809-1.426-1.586-2.156-2.367c-0.691-0.746-1.395-1.481-2.117-2.199
		c-0.758-0.738-1.527-1.445-2.313-2.141c-0.766-0.684-1.523-1.356-2.316-2c-0.801-0.66-1.637-1.297-2.473-1.914
		c-0.828-0.609-1.656-1.203-2.516-1.762c-0.867-0.582-1.742-1.129-2.645-1.668c-0.895-0.527-1.809-1.031-2.738-1.52
		c-0.926-0.488-1.859-0.949-2.809-1.391c-0.977-0.441-1.977-0.855-2.98-1.254c-0.984-0.387-1.973-0.758-2.984-1.102
		c-1.059-0.352-2.141-0.664-3.242-0.961c-1.031-0.281-2.078-0.559-3.145-0.801c-1.148-0.25-2.336-0.445-3.527-0.641
		c-1.094-0.172-2.184-0.355-3.316-0.484c-1.242-0.141-2.543-0.215-3.836-0.285c-1.145-0.07-2.285-0.141-3.465-0.168
		c-0.039,0-0.07-0.004-0.113-0.004c-0.301-0.004-0.574-0.039-0.875-0.039c-0.207,0-0.43,0.023-0.637,0.023
		c-1.734,0.012-3.5,0.066-5.316,0.191c8.387,19.582,16.367,39.309,23.871,59.215c0.012,0.004,0.012,0.019,0.016,0.031
		c2.262,5.996,4.48,12.012,6.648,18.051c0.008,0.016,0.016,0.023,0.02,0.031c7.754,21.555,14.93,43.359,21.418,65.465
		c2.988,10.176,5.844,20.387,8.566,30.641c0.008,0.031,0.023,0.066,0.035,0.102c1.609,6.094,3.191,12.203,4.719,18.328
		c0,0.02,0.004,0.031,0.012,0.043c8.559,34.316,15.664,68.996,21.246,103.918v0.016c0.914,5.719,1.793,11.438,2.633,17.172
		c0,0.02,0,0.047,0.004,0.07c5.27,36.297,8.91,72.844,10.844,109.465c0.004,0.012,0.004,0.031,0.004,0.031
		c0.305,5.949,0.586,11.883,0.805,17.836c0,0.027,0,0.059,0,0.086c1.344,35.773,1.063,71.617-0.91,107.379
		c0,0.008,0,0.02-0.004,0.027c-0.191,3.402-0.391,6.809-0.609,10.211c-0.195,3.141-0.41,6.262-0.645,9.398c0,0.027,0,0.055,0,0.078
		c-2.363,32.582-6.148,65.078-11.32,97.348c-0.008,0.012-0.008,0.031-0.012,0.051c-1.059,6.598-2.172,13.176-3.344,19.754
		c-0.004,0.008-0.004,0.02-0.008,0.027c-6.207,34.77-14.023,69.238-23.434,103.262c-0.008,0.027-0.012,0.035-0.016,0.051
		c-1.875,6.777-3.816,13.559-5.813,20.305c0,0.008-0.012,0.012-0.012,0.023c-11.242,37.918-24.477,75.254-39.641,111.754
		l-0.004,0.016c-2.945,7.094-5.957,14.129-9.043,21.156c-0.004,0.008-0.012,0.02-0.012,0.027
		c-22.148,50.348-48.023,99.035-77.488,145.438h19.781c35.066,0,70.121,0,105.172-0.016c17.539,0,35.059-0.012,52.602-0.012
		c1.355,0,2.879,0.125,4.449,0.258c1.473,0.105,2.98,0.215,4.465,0.227c0.074,0,0.16,0.012,0.242,0.012
		c0.039,0,0.066-0.004,0.102-0.004c0.891,0,1.766-0.066,2.605-0.172c0.191-0.031,0.371-0.059,0.559-0.094
		c0.855-0.145,1.688-0.34,2.438-0.66c1.477-0.645,2.715-1.688,3.52-3.32c2.41-4.93,1.816-11.094,2.625-16.363
		c5.809-37.973,8.605-76.488,11.293-114.773c0.066-0.902,0.125-1.793,0.188-2.684c0.051-0.77,0.098-1.539,0.148-2.309
		c0.375-5.375,0.707-10.758,1.02-16.148c0.059-0.965,0.094-1.922,0.152-2.879c0.617-10.645,1.168-21.297,1.625-31.957
		c0.016-0.352,0.035-0.691,0.051-1.043c0.008-0.309,0.023-0.629,0.035-0.945c0.141-3.305,0.227-6.613,0.348-9.922
		c0.234-6.059,0.465-12.121,0.645-18.188c0.039-1.461,0.105-2.918,0.156-4.375c0-0.141,0.004-0.277,0.008-0.422
		c0.016-0.602,0.035-1.191,0.051-1.797c0.008-0.375,0.023-0.746,0.027-1.113c0.008-0.125,0.012-0.254,0.012-0.387
		c0.398-14.793,0.668-29.582,0.836-44.379c0.012-0.633,0.031-1.277,0.039-1.91c0.07-5.672,0.113-11.344,0.152-17
		c0.047-6.094,0.063-12.176,0.078-18.273c0.004-1.063,0.004-2.145,0.004-3.199c0-0.621,0-1.25,0-1.875c0-0.414,0-0.832,0-1.242
		C1173.449,1686.586,1173.449,1684.074,1173.449,1681.563z"/>
	<path style="fill:#BC5A29;" d="M1137.543,1844.32c-24.313-3.406-48.703-5.27-73.254-5.262c-0.539,0-1.074,0-1.609,0
		c-6.039,0.023-12.074,0.148-18.109,0.367l-0.004,0.016c-2.945,7.094-5.957,14.129-9.043,21.156
		c13.289-0.898,26.609-1.336,39.934-1.336c16.551,0,33.102,0.672,49.574,1.996c14.164,1.141,28.332,2.793,42.418,4.777l0.762,0.117
		c0.375-5.375,0.707-10.758,1.02-16.148C1158.75,1847.703,1148.184,1845.801,1137.543,1844.32z"/>
	<path style="fill:#BC5A29;" d="M1145.902,1709.875c-15.813-1.75-31.688-2.66-47.574-2.66c-2.762,0-5.52,0.027-8.277,0.078
		c-0.008,0.027-0.012,0.035-0.016,0.051c-1.875,6.777-3.816,13.559-5.813,20.305c9.531-0.547,19.094-0.809,28.629-0.809
		c4.027,0,8.047,0.047,12.063,0.141c14.004,0.316,27.973,1.285,41.887,2.859c2.117,0.234,4.262,0.531,6.414,0.848
		c0.07-5.672,0.113-11.344,0.152-17C1164.27,1712.09,1155.082,1710.883,1145.902,1709.875z"/>
	<path style="fill:#BC5A29;" d="M1134.602,1584.258c-3.402-0.086-6.813-0.133-10.223-0.133c-2.504,0-5.02,0.02-7.531,0.074
		c-0.008,0.012-0.008,0.031-0.012,0.051c-1.059,6.598-2.172,13.176-3.344,19.754c7.027-0.406,14.063-0.645,21.109-0.723
		c1.184-0.008,2.355-0.02,3.535-0.02c11.539,0,23.031,0.605,34.535,1.227c-0.07-3.945-0.156-7.887-0.246-11.828
		c-0.027-1.375-0.051-2.754-0.086-4.137c-0.012-0.52-0.016-1.047-0.031-1.57C1159.824,1585.305,1147.18,1584.594,1134.602,1584.258z
		"/>
	<path style="fill:#BC5A29;" d="M1141.266,1467.969c-3.941-0.352-7.887-0.629-11.84-0.832c0,0.008,0,0.02-0.004,0.027
		c-0.191,3.402-0.391,6.809-0.609,10.211c-0.195,3.141-0.41,6.262-0.645,9.398c4.371,0.078,8.738,0.238,13.098,0.469
		c9.285,0.477,18.547,1.375,27.766,2.625c-0.137-2.965-0.281-5.941-0.418-8.918c-0.086-1.828-0.172-3.672-0.258-5.496
		c-0.07-1.363-0.129-2.723-0.195-4.082v-0.016C1159.242,1469.867,1150.254,1468.777,1141.266,1467.969z"/>
	<path style="fill:#BC5A29;" d="M1143.457,1342.832c-4.645-0.465-9.281-0.813-13.93-1.027c0.004,0.012,0.004,0.031,0.004,0.031
		c0.305,5.949,0.586,11.883,0.805,17.836c3.953,0.059,7.902,0.203,11.84,0.434c6.426,0.363,12.805,1.008,19.168,1.867
		c-0.41-5.684-0.859-11.348-1.305-17.024C1154.535,1344.094,1149.02,1343.395,1143.457,1342.832z"/>
	<path style="fill:#BC5A29;" d="M1116.047,1215.082v0.016c0.914,5.719,1.793,11.438,2.633,17.172
		c6.949,0.355,13.902,0.922,20.832,1.672c3.457,0.387,6.906,0.848,10.328,1.379c-0.574-5.539-1.176-11.059-1.801-16.578
		C1137.453,1216.918,1126.707,1215.75,1116.047,1215.082z"/>
	<path style="fill:#BC5A29;" d="M1131.988,1095.48c-1.859-0.273-3.738-0.523-5.621-0.77c-10.816-1.371-21.715-2.047-32.629-2.047
		c-1.238,0-2.465,0.012-3.703,0.027c0.008,0.031,0.023,0.066,0.035,0.102c1.609,6.094,3.191,12.203,4.719,18.328
		c3.184-0.105,6.375-0.172,9.566-0.172c6.898,0,13.797,0.27,20.676,0.758c3.207,0.227,6.41,0.531,9.598,0.887
		c-0.203-1.414-0.418-2.832-0.629-4.25c-0.375-2.457-0.766-4.902-1.152-7.352C1132.559,1099.156,1132.281,1097.32,1131.988,1095.48
		L1131.988,1095.48z"/>
	<path style="fill:#BC5A29;" d="M1106.809,982.039c-1.789-0.395-3.586-0.746-5.387-1.07c-11.188-2.031-22.422-3.051-33.668-3.051
		c-4.789,0-9.586,0.184-14.387,0.555c0.012,0.004,0.012,0.019,0.016,0.031c2.262,5.996,4.48,12.012,6.648,18.051
		c4.738-0.387,9.496-0.582,14.242-0.582c7.973,0,15.934,0.543,23.758,1.574c4.852,0.645,9.641,1.52,14.402,2.598
		c-0.727-2.641-1.492-5.281-2.281-7.906c-0.055-0.172-0.117-0.332-0.168-0.504C1108.988,988.481,1107.941,985.242,1106.809,982.039
		L1106.809,982.039z"/>
</g>
</svg>
